<svg id="svg" version="1.1" xmlns="http://www.w3.org/2000/svg" xmlns:xlink="http://www.w3.org/1999/xlink" width="400" height="400" viewBox="0, 0, 400,400"><g id="svgg"><path id="path0" d="M198.200 208.670 C 197.320 208.774,196.330 209.101,196.000 209.396 C 195.670 209.691,194.725 210.058,193.900 210.211 C 193.064 210.366,192.400 210.723,192.400 211.018 C 192.400 211.308,192.040 211.660,191.600 211.800 C 189.168 212.572,184.400 218.752,184.400 221.132 C 184.400 221.559,184.131 222.424,183.802 223.054 C 182.626 225.309,183.184 234.383,184.500 234.397 C 184.665 234.399,184.800 235.114,184.800 235.986 C 184.800 237.162,185.007 237.682,185.600 238.000 C 186.045 238.238,186.400 238.838,186.400 239.350 C 186.400 239.945,186.754 240.433,187.400 240.727 C 187.950 240.978,188.400 241.442,188.400 241.758 C 188.400 242.074,188.563 242.393,188.762 242.467 C 191.109 243.331,193.274 252.516,191.798 255.346 C 191.469 255.976,191.200 256.699,191.200 256.952 C 191.200 257.205,190.840 258.084,190.400 258.904 C 189.300 260.956,189.247 266.447,190.317 267.517 C 190.712 267.912,191.265 268.790,191.546 269.469 C 192.495 271.761,193.982 272.079,203.034 271.931 C 208.507 271.841,211.250 271.644,211.800 271.300 C 212.240 271.025,213.112 270.618,213.739 270.395 C 214.365 270.173,214.971 269.633,215.085 269.195 C 215.365 268.126,216.273 268.187,216.652 269.300 C 216.821 269.795,216.927 270.324,216.888 270.475 C 216.849 270.625,217.167 270.723,217.594 270.690 C 218.285 270.638,218.306 270.559,217.786 269.984 C 216.820 268.917,216.992 265.620,218.000 265.884 C 219.092 266.170,219.015 265.484,217.900 264.995 C 217.217 264.695,216.973 264.215,216.889 263.000 C 216.828 262.120,216.608 261.040,216.400 260.600 C 213.140 253.709,212.699 249.045,215.066 246.491 C 215.580 245.937,216.000 245.329,216.000 245.142 C 216.000 244.954,216.270 244.800,216.600 244.800 C 216.930 244.800,217.200 244.665,217.200 244.499 C 217.200 244.334,218.010 243.329,219.000 242.265 C 219.990 241.202,220.800 240.100,220.800 239.815 C 220.800 239.531,221.070 239.074,221.400 238.800 C 221.730 238.526,222.000 237.916,222.000 237.445 C 222.000 236.974,222.379 235.880,222.843 235.015 C 223.851 233.134,224.311 228.094,223.665 226.000 C 222.738 222.993,221.758 220.557,221.094 219.611 C 220.712 219.067,220.400 218.291,220.400 217.886 C 220.400 217.352,220.153 217.184,219.500 217.275 C 218.770 217.376,218.619 217.226,218.699 216.482 C 218.789 215.635,218.425 214.936,217.400 213.994 C 214.428 211.259,213.255 210.409,212.447 210.405 C 211.923 210.402,210.888 210.025,210.147 209.567 C 208.755 208.707,202.105 208.207,198.200 208.670 M188.111 267.633 C 188.140 268.202,188.394 268.667,188.675 268.667 C 188.985 268.667,189.053 268.496,188.847 268.233 C 188.660 267.995,188.407 267.530,188.283 267.200 C 188.160 266.870,188.083 267.065,188.111 267.633 " stroke="none" fill="#2052aa" fill-rule="evenodd"></path><path id="path1" d="M181.153 57.915 C 181.127 58.072,181.139 58.380,181.181 58.600 C 181.223 58.820,181.028 58.775,180.749 58.500 C 180.072 57.835,178.918 57.865,178.520 58.557 C 178.306 58.929,177.140 59.180,175.000 59.316 C 171.238 59.553,170.429 59.711,170.068 60.275 C 169.841 60.629,168.326 60.897,164.276 61.299 C 163.792 61.348,163.613 61.608,163.738 62.086 C 163.903 62.717,163.624 62.800,161.325 62.800 C 159.062 62.800,158.698 62.904,158.516 63.600 C 158.346 64.249,157.970 64.400,156.525 64.400 C 154.863 64.400,153.323 65.189,153.886 65.752 C 154.113 65.980,150.502 66.191,149.265 66.022 C 148.898 65.972,148.812 66.208,148.992 66.774 C 149.238 67.551,148.196 67.840,146.145 67.566 C 146.004 67.547,145.737 67.772,145.551 68.066 C 145.298 68.465,145.211 68.474,145.206 68.100 C 145.203 67.825,144.990 67.600,144.733 67.600 C 144.477 67.600,144.378 67.711,144.514 67.848 C 144.956 68.289,143.686 69.200,142.629 69.200 C 142.063 69.200,141.597 69.425,141.594 69.700 C 141.590 70.038,141.452 70.006,141.168 69.600 C 140.839 69.130,140.803 69.195,141.001 69.900 C 141.237 70.739,141.130 70.800,139.427 70.800 C 137.867 70.800,137.600 70.917,137.600 71.600 C 137.600 72.245,137.333 72.400,136.224 72.400 C 135.467 72.400,134.719 72.608,134.562 72.862 C 134.368 73.175,134.457 73.215,134.838 72.985 C 135.317 72.697,135.319 72.747,134.851 73.323 C 134.549 73.695,134.030 74.000,133.698 74.000 C 133.366 74.000,132.771 74.372,132.377 74.826 C 131.983 75.281,131.557 75.641,131.430 75.626 C 129.855 75.447,129.200 75.674,129.200 76.400 C 129.200 77.158,128.444 77.430,126.900 77.230 C 126.625 77.194,126.400 77.533,126.400 77.982 C 126.400 78.642,126.143 78.800,125.072 78.800 C 124.154 78.800,123.476 79.109,122.875 79.800 C 122.397 80.350,121.805 80.800,121.560 80.800 C 121.315 80.800,121.218 81.070,121.345 81.400 C 121.511 81.833,121.301 82.000,120.587 82.000 C 120.044 82.000,119.258 82.342,118.839 82.761 C 118.421 83.179,117.701 83.641,117.239 83.787 C 116.778 83.934,116.400 84.300,116.400 84.600 C 116.400 84.900,116.040 85.260,115.600 85.400 C 115.160 85.540,114.800 86.002,114.800 86.427 C 114.800 86.925,114.524 87.200,114.024 87.200 C 113.597 87.200,113.136 87.380,113.000 87.600 C 112.864 87.820,112.538 87.997,112.276 87.994 C 111.990 87.990,112.039 87.833,112.400 87.600 C 112.856 87.306,112.871 87.211,112.463 87.206 C 112.167 87.203,111.831 87.560,111.716 88.000 C 111.525 88.729,111.113 88.976,110.300 88.847 C 110.135 88.821,110.000 89.074,110.000 89.409 C 110.000 89.743,109.550 90.222,109.000 90.473 C 108.450 90.723,108.000 91.170,108.000 91.464 C 108.000 91.759,107.640 92.000,107.200 92.000 C 106.667 92.000,106.400 92.267,106.400 92.800 C 106.400 93.333,106.133 93.600,105.600 93.600 C 105.067 93.600,104.800 93.867,104.800 94.400 C 104.800 94.933,104.533 95.200,104.000 95.200 C 103.467 95.200,103.200 95.467,103.200 96.000 C 103.200 96.533,102.933 96.800,102.400 96.800 C 101.867 96.800,101.600 97.067,101.600 97.600 C 101.600 98.133,101.333 98.400,100.800 98.400 C 100.267 98.400,100.000 98.667,100.000 99.200 C 100.000 99.733,99.733 100.000,99.200 100.000 C 98.667 100.000,98.400 100.267,98.400 100.800 C 98.400 101.333,98.133 101.600,97.600 101.600 C 97.067 101.600,96.800 101.867,96.800 102.400 C 96.800 102.933,96.533 103.200,96.000 103.200 C 95.467 103.200,95.200 103.467,95.200 104.000 C 95.200 104.524,94.933 104.800,94.428 104.800 C 93.934 104.800,93.606 105.125,93.518 105.700 C 93.443 106.195,93.156 106.554,92.882 106.497 C 92.607 106.440,92.211 106.845,92.001 107.397 C 91.791 107.949,91.345 108.400,91.010 108.400 C 90.674 108.400,90.400 108.732,90.400 109.138 C 90.400 109.544,90.040 110.202,89.600 110.600 C 89.160 110.998,88.800 111.746,88.800 112.262 C 88.800 112.933,88.573 113.200,88.000 113.200 C 87.467 113.200,87.200 113.467,87.200 114.000 C 87.200 114.533,86.933 114.800,86.400 114.800 C 85.892 114.800,85.600 115.067,85.600 115.530 C 85.600 115.932,85.150 116.683,84.600 117.200 C 84.050 117.717,83.600 118.447,83.600 118.823 C 83.600 119.199,83.240 119.601,82.800 119.716 C 82.187 119.876,82.000 120.262,82.000 121.363 C 82.000 122.533,81.852 122.800,81.200 122.800 C 80.683 122.800,80.400 123.067,80.400 123.553 C 80.400 123.970,80.043 124.400,79.600 124.516 C 78.987 124.676,78.800 125.062,78.800 126.163 C 78.800 127.333,78.652 127.600,78.000 127.600 C 77.413 127.600,77.200 127.867,77.200 128.600 C 77.200 129.188,76.970 129.600,76.643 129.600 C 76.005 129.600,75.600 130.449,75.600 131.786 C 75.600 132.370,75.308 132.783,74.800 132.916 C 74.065 133.108,73.686 134.949,73.958 137.000 C 73.988 137.220,73.748 137.063,73.426 136.651 C 72.796 135.846,72.702 136.011,72.310 138.600 C 72.244 139.040,71.937 139.400,71.628 139.400 C 71.319 139.400,70.983 139.650,70.881 139.956 C 70.769 140.293,70.874 140.402,71.148 140.232 C 71.397 140.078,71.600 140.143,71.600 140.376 C 71.600 140.609,71.420 140.800,71.200 140.800 C 70.980 140.800,70.800 141.499,70.800 142.353 C 70.800 143.552,70.624 143.953,70.027 144.109 C 69.463 144.256,69.219 144.729,69.127 145.856 C 69.057 146.705,68.840 147.340,68.645 147.266 C 68.021 147.030,67.612 148.144,67.606 150.100 C 67.600 151.872,67.370 152.216,66.300 152.047 C 66.135 152.021,66.000 153.159,66.000 154.576 C 66.000 156.092,65.810 157.270,65.538 157.438 C 65.235 157.625,65.186 157.547,65.394 157.210 C 65.605 156.868,65.526 156.758,65.156 156.880 C 64.774 157.006,64.563 157.885,64.483 159.690 C 64.374 162.112,64.302 162.299,63.548 162.102 C 62.923 161.939,62.750 162.066,62.811 162.644 C 63.054 164.915,62.757 169.353,62.400 168.800 C 62.118 168.364,62.011 168.343,62.006 168.724 C 62.003 169.012,61.806 169.127,61.569 168.981 C 61.283 168.804,61.204 169.131,61.334 169.956 C 61.442 170.638,61.365 171.298,61.165 171.422 C 60.964 171.546,60.800 172.723,60.800 174.038 C 60.800 175.565,60.567 176.784,60.154 177.415 C 59.798 177.957,59.601 178.761,59.716 179.201 C 59.831 179.641,59.780 179.911,59.602 179.801 C 59.424 179.691,59.260 182.879,59.237 186.886 C 59.202 192.981,59.096 194.227,58.583 194.513 C 58.216 194.719,57.960 195.446,57.943 196.328 C 57.294 229.984,57.834 312.236,58.710 313.292 C 59.058 313.711,59.218 317.746,59.295 328.035 C 59.400 342.183,59.401 342.200,60.259 342.322 C 60.732 342.390,61.208 342.787,61.317 343.206 C 61.606 344.310,132.400 344.338,132.400 343.235 C 132.400 342.873,132.760 342.270,133.200 341.893 C 134.280 340.968,134.280 339.200,133.200 339.200 C 132.140 339.200,132.118 337.569,133.168 336.913 C 134.146 336.302,134.242 326.108,133.269 326.310 C 132.978 326.370,132.845 326.251,132.972 326.046 C 133.099 325.840,133.517 325.731,133.902 325.805 C 134.286 325.879,135.254 325.953,136.053 325.969 C 137.155 325.993,137.557 326.193,137.716 326.800 C 137.876 327.413,138.262 327.600,139.363 327.600 C 140.548 327.600,140.800 327.745,140.800 328.425 C 140.800 328.971,141.037 329.226,141.500 329.179 C 143.174 329.009,143.918 329.242,144.116 330.000 C 144.294 330.680,144.662 330.800,146.563 330.800 C 148.533 330.800,148.800 330.895,148.800 331.600 C 148.800 332.264,149.067 332.400,150.373 332.400 C 151.549 332.400,152.005 332.586,152.179 333.135 C 152.358 333.698,152.858 333.887,154.306 333.941 C 156.847 334.036,157.609 334.312,157.331 335.037 C 157.205 335.365,157.259 335.604,157.451 335.569 C 159.737 335.152,163.600 335.674,163.600 336.400 C 163.600 337.133,163.867 337.200,166.800 337.200 C 169.915 337.200,170.252 337.341,170.030 338.551 C 169.995 338.744,170.334 338.806,170.783 338.689 C 171.232 338.571,171.600 338.612,171.600 338.779 C 171.600 338.946,172.995 339.130,174.700 339.187 C 176.405 339.244,178.008 339.300,178.262 339.312 C 178.516 339.324,178.643 339.543,178.545 339.800 C 178.315 340.399,178.343 340.403,185.200 340.656 C 189.579 340.817,191.078 341.007,191.317 341.429 C 191.656 342.029,193.501 342.078,194.264 341.508 C 194.537 341.304,194.836 341.334,194.988 341.581 C 195.348 342.163,196.695 342.107,196.914 341.500 C 197.059 341.100,197.265 341.100,197.942 341.500 C 198.951 342.096,204.644 342.176,205.000 341.600 C 205.136 341.380,205.777 341.200,206.424 341.200 C 207.071 341.200,207.600 341.380,207.600 341.600 C 207.600 342.219,210.858 342.072,211.578 341.420 C 212.050 340.993,213.423 340.826,216.809 340.786 C 222.544 340.717,224.800 340.437,224.800 339.795 C 224.800 339.448,225.908 339.245,228.469 339.122 C 231.690 338.968,232.208 338.841,232.718 338.074 C 233.220 337.318,233.665 337.200,236.026 337.200 C 238.263 337.200,238.852 337.062,239.292 336.432 C 239.690 335.865,240.451 335.619,242.215 335.489 C 244.015 335.356,244.632 335.152,244.729 334.656 C 244.829 334.152,245.324 334.000,246.867 334.000 C 248.538 334.000,248.910 333.866,249.084 333.200 C 249.263 332.516,249.630 332.400,251.620 332.400 C 253.595 332.400,253.984 332.279,254.200 331.600 C 254.397 330.979,254.805 330.800,256.027 330.800 C 257.333 330.800,257.600 330.664,257.600 330.000 C 257.600 329.333,257.867 329.200,259.200 329.200 C 260.533 329.200,260.800 329.067,260.800 328.400 C 260.800 327.719,261.067 327.600,262.597 327.600 C 263.960 327.600,264.514 327.407,264.893 326.800 C 265.168 326.360,265.816 326.000,266.334 326.000 C 266.938 326.000,267.350 325.714,267.484 325.200 C 267.648 324.573,268.030 324.400,269.247 324.400 C 270.533 324.400,270.800 324.263,270.800 323.600 C 270.800 322.866,271.883 322.509,273.334 322.764 C 273.518 322.796,273.764 322.458,273.881 322.011 C 274.032 321.433,274.424 321.200,275.247 321.200 C 275.881 321.200,276.400 321.009,276.400 320.776 C 276.400 320.543,276.611 320.483,276.868 320.642 C 277.183 320.836,277.252 320.713,277.081 320.266 C 276.885 319.756,277.056 319.600,277.813 319.600 C 278.533 319.600,278.800 319.384,278.800 318.800 C 278.800 318.275,279.067 318.000,279.576 318.000 C 280.003 318.000,280.459 317.828,280.589 317.617 C 280.719 317.407,281.103 317.342,281.443 317.472 C 281.885 317.642,282.023 317.495,281.930 316.954 C 281.836 316.411,282.005 316.235,282.531 316.325 C 282.996 316.404,283.340 316.149,283.478 315.625 C 283.596 315.171,283.961 314.800,284.289 314.800 C 284.616 314.800,285.419 314.350,286.073 313.800 C 286.727 313.250,287.518 312.800,287.831 312.800 C 288.144 312.800,288.400 312.526,288.400 312.190 C 288.400 311.855,288.850 311.409,289.400 311.200 C 289.950 310.991,290.400 310.545,290.400 310.210 C 290.400 309.867,290.750 309.600,291.200 309.600 C 291.733 309.600,292.000 309.333,292.000 308.800 C 292.000 308.267,292.267 308.000,292.800 308.000 C 293.333 308.000,293.600 307.733,293.600 307.200 C 293.600 306.678,293.867 306.400,294.367 306.400 C 295.559 306.400,296.400 305.969,296.400 305.357 C 296.400 305.051,296.777 304.800,297.237 304.800 C 297.725 304.800,298.158 304.481,298.274 304.037 C 298.384 303.617,298.841 303.178,299.289 303.061 C 299.810 302.925,300.021 302.632,299.874 302.249 C 299.720 301.848,299.929 301.609,300.506 301.525 C 300.980 301.456,301.465 301.040,301.584 300.600 C 301.703 300.160,302.070 299.800,302.400 299.800 C 302.730 299.800,302.954 299.571,302.897 299.291 C 302.840 299.011,303.245 298.611,303.797 298.401 C 304.349 298.191,304.800 297.766,304.800 297.457 C 304.800 297.147,305.165 296.798,305.611 296.681 C 306.058 296.564,306.396 296.318,306.364 296.134 C 306.109 294.683,306.466 293.600,307.200 293.600 C 307.733 293.600,308.000 293.333,308.000 292.800 C 308.000 292.267,308.267 292.000,308.800 292.000 C 309.333 292.000,309.600 291.733,309.600 291.200 C 309.600 290.667,309.867 290.400,310.400 290.400 C 310.924 290.400,311.200 290.133,311.200 289.628 C 311.200 289.132,311.522 288.810,312.100 288.728 C 312.678 288.646,313.046 288.278,313.128 287.700 C 313.198 287.205,313.501 286.800,313.801 286.800 C 314.101 286.800,314.460 286.440,314.600 286.000 C 314.740 285.560,315.096 285.200,315.392 285.200 C 315.708 285.200,316.041 284.539,316.200 283.600 C 316.412 282.348,316.647 282.000,317.282 282.000 C 317.896 282.000,318.043 281.806,317.884 281.200 C 317.693 280.471,318.025 280.205,318.930 280.363 C 319.111 280.394,319.145 280.235,319.006 280.010 C 318.867 279.784,318.943 279.600,319.176 279.600 C 319.409 279.600,319.600 279.060,319.600 278.400 C 319.600 277.467,319.778 277.200,320.400 277.200 C 320.917 277.200,321.200 276.933,321.200 276.447 C 321.200 276.030,321.557 275.600,322.000 275.484 C 322.606 275.325,322.800 274.938,322.800 273.884 C 322.800 272.830,322.994 272.443,323.600 272.284 C 324.178 272.133,324.400 271.738,324.400 270.864 C 324.400 270.005,324.632 269.580,325.200 269.400 C 325.711 269.238,326.000 268.795,326.000 268.173 C 326.000 267.608,326.234 267.200,326.557 267.200 C 327.202 267.200,327.600 266.348,327.600 264.967 C 327.600 264.267,327.821 264.000,328.400 264.000 C 328.840 264.000,329.200 263.809,329.200 263.576 C 329.200 263.343,328.975 263.280,328.700 263.435 C 328.300 263.661,328.300 263.610,328.700 263.179 C 328.975 262.882,329.200 262.269,329.200 261.816 C 329.200 261.363,329.560 260.768,330.000 260.493 C 330.594 260.122,330.802 259.556,330.806 258.297 C 330.811 257.077,330.918 256.768,331.189 257.197 C 331.496 257.682,331.662 257.698,332.080 257.280 C 332.498 256.862,332.482 256.696,331.997 256.389 C 331.598 256.138,331.566 256.010,331.900 256.006 C 332.216 256.002,332.400 255.410,332.400 254.400 C 332.400 253.119,332.545 252.800,333.129 252.800 C 333.729 252.800,333.874 252.430,333.951 250.700 C 334.003 249.545,334.211 248.433,334.414 248.229 C 334.638 248.003,334.718 248.189,334.618 248.706 C 334.509 249.274,334.624 249.489,334.966 249.358 C 335.285 249.235,335.506 248.308,335.552 246.898 C 335.606 245.229,335.832 244.443,336.413 243.902 C 336.978 243.376,337.200 242.644,337.200 241.310 C 337.200 239.933,337.433 239.204,338.100 238.495 C 338.822 237.728,339.040 236.930,339.200 234.469 C 339.360 232.014,339.520 231.427,340.000 231.533 C 340.330 231.607,340.467 231.533,340.303 231.370 C 340.140 231.207,340.175 230.871,340.380 230.624 C 340.585 230.377,340.790 228.892,340.836 227.323 C 340.905 224.963,341.023 224.511,341.524 224.703 C 341.984 224.879,342.074 224.727,341.902 224.067 C 341.766 223.548,341.861 223.198,342.137 223.194 C 342.396 223.190,342.336 223.017,342.000 222.800 C 341.600 222.542,341.567 222.410,341.900 222.406 C 342.271 222.402,342.400 221.196,342.400 217.731 C 342.400 213.847,342.518 212.933,343.100 212.289 C 344.141 211.138,344.175 187.409,343.136 186.650 C 342.602 186.260,342.436 185.230,342.287 181.382 C 342.085 176.154,341.954 175.270,341.324 174.868 C 341.092 174.721,340.821 173.000,340.720 171.045 C 340.588 168.469,340.368 167.366,339.923 167.040 C 339.510 166.738,339.228 165.607,339.066 163.595 C 338.933 161.948,338.819 160.544,338.812 160.476 C 338.805 160.408,338.656 160.442,338.481 160.550 C 337.713 161.024,337.242 160.006,337.159 157.691 C 337.082 155.574,336.959 155.200,336.334 155.200 C 335.703 155.200,335.600 154.861,335.600 152.782 C 335.600 150.702,335.502 150.381,334.900 150.482 C 334.347 150.575,334.173 150.265,334.070 149.005 C 333.999 148.128,333.729 147.148,333.470 146.828 C 333.092 146.360,333.117 146.304,333.600 146.542 C 333.930 146.704,333.795 146.537,333.300 146.170 C 332.636 145.677,332.400 145.095,332.400 143.951 C 332.400 143.098,332.265 142.421,332.100 142.447 C 331.067 142.611,330.800 142.273,330.800 140.800 C 330.800 139.467,330.667 139.200,330.000 139.200 C 329.319 139.200,329.200 138.933,329.200 137.400 C 329.200 136.164,328.962 135.362,328.439 134.839 C 328.021 134.421,327.559 133.701,327.413 133.239 C 327.266 132.778,326.888 132.400,326.573 132.400 C 326.171 132.400,326.000 131.922,326.000 130.800 C 326.000 129.920,325.865 129.221,325.700 129.247 C 324.692 129.406,324.400 129.072,324.400 127.763 C 324.400 126.662,324.213 126.276,323.600 126.116 C 323.157 126.000,322.800 125.570,322.800 125.153 C 322.800 124.739,322.575 124.397,322.300 124.394 C 321.915 124.389,321.919 124.312,322.319 124.059 C 322.733 123.796,322.713 123.626,322.219 123.216 C 321.712 122.795,321.599 122.801,321.594 123.251 C 321.589 123.713,321.533 123.713,321.243 123.256 C 321.053 122.956,320.989 122.364,321.100 121.939 C 321.211 121.514,321.144 121.195,320.951 121.230 C 319.987 121.407,319.600 121.108,319.600 120.187 C 319.600 119.631,319.315 119.065,318.966 118.932 C 318.456 118.736,318.437 118.623,318.866 118.350 C 319.275 118.091,319.236 118.011,318.700 118.006 C 318.269 118.002,318.000 117.693,318.000 117.200 C 318.000 116.667,317.733 116.400,317.200 116.400 C 316.484 116.400,316.213 115.984,316.353 115.100 C 316.379 114.935,316.040 114.800,315.600 114.800 C 314.884 114.800,314.613 114.384,314.753 113.500 C 314.779 113.335,314.637 113.200,314.437 113.200 C 314.238 113.200,314.169 112.840,314.284 112.400 C 314.425 111.863,314.296 111.600,313.893 111.600 C 313.563 111.600,313.196 111.227,313.076 110.770 C 312.957 110.314,312.486 109.843,312.030 109.724 C 311.561 109.601,311.200 109.179,311.200 108.753 C 311.200 108.267,310.917 108.000,310.400 108.000 C 309.867 108.000,309.600 107.733,309.600 107.200 C 309.600 106.667,309.333 106.400,308.800 106.400 C 308.267 106.400,308.000 106.133,308.000 105.600 C 308.000 105.067,307.733 104.800,307.200 104.800 C 306.703 104.800,306.400 104.533,306.400 104.096 C 306.400 103.709,306.040 103.168,305.600 102.893 C 305.160 102.618,304.800 102.117,304.800 101.779 C 304.800 101.184,300.811 96.800,300.269 96.800 C 300.121 96.800,299.640 96.440,299.200 96.000 C 298.760 95.560,298.040 95.200,297.600 95.200 C 297.067 95.200,296.800 94.933,296.800 94.400 C 296.800 93.867,296.533 93.600,296.000 93.600 C 295.467 93.600,295.200 93.333,295.200 92.800 C 295.200 92.267,294.933 92.000,294.400 92.000 C 293.867 92.000,293.600 91.733,293.600 91.200 C 293.600 90.667,293.333 90.400,292.800 90.400 C 292.335 90.400,292.000 90.133,292.000 89.763 C 292.000 89.412,291.646 89.033,291.213 88.919 C 290.781 88.806,290.318 88.373,290.186 87.957 C 290.054 87.541,289.619 87.200,289.220 87.200 C 288.820 87.200,288.402 86.852,288.291 86.426 C 288.158 85.918,287.595 85.560,286.644 85.382 C 285.591 85.184,285.200 84.907,285.200 84.355 C 285.200 83.882,284.919 83.600,284.447 83.600 C 284.030 83.600,283.600 83.243,283.484 82.800 C 283.324 82.187,282.938 82.000,281.837 82.000 C 280.667 82.000,280.400 81.852,280.400 81.200 C 280.400 80.683,280.133 80.400,279.647 80.400 C 279.226 80.400,278.800 80.041,278.681 79.589 C 278.564 79.142,278.318 78.804,278.134 78.836 C 276.683 79.091,275.600 78.734,275.600 78.000 C 275.600 77.423,275.333 77.200,274.644 77.200 C 274.002 77.200,273.707 76.984,273.744 76.543 C 273.775 76.182,273.550 75.798,273.244 75.691 C 272.865 75.558,272.788 75.671,273.003 76.048 C 273.257 76.494,273.214 76.504,272.779 76.100 C 272.482 75.825,271.937 75.600,271.567 75.600 C 271.196 75.600,270.799 75.240,270.684 74.800 C 270.525 74.194,270.138 74.000,269.084 74.000 C 268.030 74.000,267.643 73.806,267.484 73.200 C 267.325 72.591,266.938 72.400,265.864 72.400 C 264.805 72.400,264.391 72.201,264.200 71.600 C 264.005 70.984,263.595 70.800,262.420 70.800 C 261.247 70.800,260.846 70.621,260.691 70.027 C 260.547 69.476,260.071 69.217,259.036 69.127 C 258.237 69.057,257.602 68.840,257.626 68.645 C 257.703 67.996,256.623 67.612,254.700 67.606 C 253.069 67.601,252.800 67.487,252.800 66.800 C 252.800 66.119,252.533 66.000,251.013 66.000 C 249.510 66.000,249.266 65.894,249.481 65.334 C 249.643 64.911,249.578 64.766,249.302 64.937 C 249.064 65.084,248.808 65.034,248.734 64.825 C 248.660 64.616,247.472 64.405,246.094 64.356 C 243.775 64.275,243.603 64.206,243.790 63.434 C 243.902 62.975,243.889 62.825,243.763 63.100 C 243.637 63.375,243.358 63.600,243.143 63.600 C 242.928 63.600,242.864 63.420,243.000 63.200 C 243.154 62.950,242.346 62.800,240.851 62.800 C 238.849 62.800,238.414 62.675,238.213 62.042 C 237.935 61.165,236.358 60.800,233.363 60.919 C 231.599 60.989,231.351 60.906,231.510 60.300 C 231.611 59.915,231.482 59.600,231.223 59.600 C 230.964 59.600,230.876 59.799,231.026 60.041 C 231.176 60.284,230.871 60.214,230.349 59.885 C 229.774 59.523,228.299 59.264,226.607 59.228 C 224.604 59.185,223.720 59.000,223.482 58.576 C 223.300 58.250,222.994 58.080,222.803 58.198 C 222.612 58.316,222.346 58.236,222.212 58.020 C 221.931 57.565,181.228 57.461,181.153 57.915 M212.071 88.756 C 215.451 88.791,216.480 88.937,216.997 89.454 C 217.442 89.899,217.782 89.978,218.059 89.701 C 218.520 89.240,220.000 89.504,220.000 90.047 C 220.000 90.241,221.176 90.400,222.613 90.400 C 224.609 90.400,225.282 90.547,225.464 91.023 C 225.596 91.366,225.932 91.558,226.213 91.451 C 226.493 91.343,226.844 91.378,226.994 91.528 C 227.278 91.811,227.725 91.866,230.400 91.950 C 231.472 91.983,232.000 92.183,232.000 92.553 C 232.000 93.190,233.203 93.587,235.156 93.595 C 235.943 93.598,236.712 93.874,236.989 94.252 C 237.280 94.651,238.270 94.982,239.533 95.103 C 241.216 95.265,241.600 95.441,241.600 96.051 C 241.600 96.671,241.907 96.800,243.387 96.800 C 244.812 96.800,245.128 96.922,244.945 97.400 C 244.818 97.730,244.869 98.015,245.057 98.033 C 246.737 98.194,247.751 98.551,248.416 99.216 C 248.847 99.647,249.650 100.000,250.200 100.000 C 250.750 100.000,251.560 100.360,252.000 100.800 C 252.440 101.240,253.120 101.600,253.511 101.600 C 253.902 101.600,254.530 101.960,254.907 102.400 C 255.284 102.840,256.032 103.200,256.569 103.200 C 257.195 103.200,257.637 103.488,257.800 104.000 C 257.988 104.591,258.405 104.800,259.400 104.800 C 260.395 104.800,260.812 105.009,261.000 105.600 C 261.144 106.053,261.605 106.400,262.064 106.400 C 262.538 106.400,262.962 106.732,263.084 107.200 C 263.241 107.801,263.630 108.000,264.647 108.000 C 265.733 108.000,266.000 108.158,266.000 108.800 C 266.000 109.333,266.267 109.600,266.800 109.600 C 267.333 109.600,267.600 109.867,267.600 110.400 C 267.600 110.984,267.867 111.200,268.587 111.200 C 269.211 111.200,269.506 111.384,269.387 111.700 C 269.206 112.183,270.865 113.200,271.833 113.200 C 272.094 113.200,272.401 113.560,272.516 114.000 C 272.631 114.440,273.000 114.800,273.336 114.800 C 273.671 114.800,274.060 115.160,274.200 115.600 C 274.340 116.040,274.700 116.400,275.000 116.400 C 275.300 116.400,275.660 116.760,275.800 117.200 C 275.940 117.640,276.300 118.000,276.600 118.000 C 276.900 118.000,277.261 118.363,277.402 118.806 C 277.543 119.249,277.804 119.521,277.983 119.410 C 278.373 119.169,279.160 120.033,279.066 120.599 C 279.030 120.819,279.360 120.999,279.799 120.999 C 280.238 121.000,280.621 121.225,280.649 121.500 C 280.677 121.775,280.723 122.199,280.750 122.443 C 280.778 122.686,281.070 122.782,281.400 122.655 C 281.814 122.497,282.000 122.681,282.000 123.250 C 282.000 123.725,282.323 124.159,282.763 124.274 C 283.183 124.384,283.616 124.817,283.726 125.237 C 283.835 125.657,284.191 126.000,284.516 126.000 C 284.841 126.000,285.201 126.360,285.316 126.800 C 285.441 127.279,285.862 127.600,286.363 127.600 C 286.933 127.600,287.200 127.855,287.200 128.400 C 287.200 128.933,287.467 129.200,288.000 129.200 C 288.667 129.200,288.800 129.467,288.800 130.800 C 288.800 131.680,288.935 132.379,289.100 132.353 C 289.984 132.213,290.400 132.484,290.400 133.200 C 290.400 133.733,290.667 134.000,291.200 134.000 C 291.733 134.000,292.000 134.267,292.000 134.800 C 292.000 135.333,292.267 135.600,292.800 135.600 C 293.530 135.600,293.903 136.879,293.647 138.500 C 293.603 138.782,294.225 138.954,294.900 138.847 C 295.065 138.821,295.200 139.136,295.200 139.546 C 295.200 139.956,295.560 140.750,296.000 141.309 C 296.440 141.869,296.800 142.630,296.800 143.001 C 296.800 143.371,297.160 143.769,297.600 143.884 C 298.108 144.017,298.400 144.430,298.400 145.014 C 298.400 146.351,298.805 147.200,299.443 147.200 C 299.758 147.200,300.000 147.600,300.000 148.120 C 300.000 148.626,300.225 149.282,300.500 149.579 C 300.904 150.014,300.893 150.056,300.438 149.797 C 300.062 149.582,299.971 149.629,300.162 149.938 C 300.319 150.192,300.707 150.400,301.024 150.400 C 301.412 150.400,301.600 150.842,301.600 151.753 C 301.600 152.770,301.799 153.159,302.400 153.316 C 303.036 153.482,303.200 153.862,303.200 155.163 C 303.200 156.533,303.330 156.800,304.000 156.800 C 304.667 156.800,304.800 157.067,304.800 158.400 C 304.800 160.557,304.762 160.618,303.497 160.474 C 302.747 160.388,302.311 160.566,302.133 161.030 C 301.893 161.657,301.833 161.660,301.395 161.061 C 300.958 160.463,292.727 160.418,198.860 160.505 L 96.800 160.600 96.800 159.500 C 96.800 158.667,96.994 158.400,97.600 158.400 C 98.263 158.400,98.400 158.133,98.400 156.847 C 98.400 155.630,98.573 155.248,99.200 155.084 C 99.799 154.927,100.000 154.538,100.000 153.534 C 100.000 152.626,100.258 152.031,100.800 151.693 C 101.352 151.348,101.600 150.760,101.600 149.797 C 101.600 148.870,101.787 148.400,102.157 148.400 C 102.760 148.400,103.200 147.562,103.200 146.414 C 103.200 146.018,103.560 145.599,104.000 145.484 C 104.606 145.325,104.800 144.938,104.800 143.884 C 104.800 142.830,104.994 142.443,105.600 142.284 C 106.053 142.166,106.400 141.738,106.400 141.299 C 106.400 140.873,106.760 140.198,107.200 139.800 C 107.640 139.402,108.000 138.654,108.000 138.138 C 108.000 137.467,108.227 137.200,108.800 137.200 C 109.333 137.200,109.600 136.933,109.600 136.400 C 109.600 135.960,109.960 135.240,110.400 134.800 C 110.840 134.360,111.200 133.640,111.200 133.200 C 111.200 132.613,111.467 132.400,112.200 132.400 C 112.933 132.400,113.200 132.187,113.200 131.600 C 113.200 131.135,113.467 130.800,113.837 130.800 C 114.188 130.800,114.569 130.440,114.684 130.000 C 114.799 129.560,115.142 129.200,115.447 129.200 C 115.751 129.200,116.000 128.924,116.000 128.587 C 116.000 128.251,116.315 127.859,116.700 127.717 C 117.656 127.364,117.987 126.797,117.994 125.500 C 117.999 124.669,118.195 124.400,118.800 124.400 C 119.333 124.400,119.600 124.133,119.600 123.600 C 119.600 123.067,119.867 122.800,120.400 122.800 C 120.933 122.800,121.200 122.533,121.200 122.000 C 121.200 121.467,121.467 121.200,122.000 121.200 C 122.533 121.200,122.800 120.933,122.800 120.400 C 122.800 119.867,123.067 119.600,123.600 119.600 C 124.133 119.600,124.400 119.333,124.400 118.800 C 124.400 118.267,124.667 118.000,125.200 118.000 C 125.640 118.000,126.000 117.826,126.000 117.613 C 126.000 117.399,126.254 117.322,126.564 117.441 C 126.903 117.572,127.233 117.327,127.391 116.829 C 127.537 116.367,127.996 116.000,128.427 116.000 C 128.852 116.000,129.200 115.809,129.200 115.576 C 129.200 115.343,129.020 115.264,128.800 115.400 C 128.580 115.536,128.400 115.457,128.400 115.224 C 128.400 114.991,128.750 114.800,129.177 114.800 C 129.605 114.800,130.238 114.395,130.585 113.900 C 130.932 113.405,131.437 113.000,131.708 113.000 C 131.978 113.000,132.258 112.595,132.328 112.100 C 132.410 111.522,132.732 111.200,133.228 111.200 C 133.733 111.200,134.000 110.924,134.000 110.400 C 134.000 109.748,134.267 109.600,135.437 109.600 C 136.538 109.600,136.924 109.413,137.084 108.800 C 137.204 108.340,137.630 108.000,138.084 108.000 C 138.538 108.000,138.964 107.660,139.084 107.200 C 139.199 106.760,139.618 106.400,140.014 106.400 C 141.408 106.400,142.062 105.957,141.561 105.353 C 141.185 104.900,141.363 104.800,142.551 104.800 C 143.733 104.800,144.000 104.653,144.000 104.000 C 144.000 103.337,144.267 103.200,145.556 103.200 C 146.792 103.200,147.100 103.056,147.056 102.500 C 147.013 101.964,147.362 101.770,148.544 101.673 C 149.671 101.581,150.144 101.337,150.291 100.773 C 150.442 100.196,150.846 100.000,151.884 100.000 C 152.938 100.000,153.325 99.806,153.484 99.200 C 153.643 98.593,154.030 98.400,155.089 98.400 C 156.130 98.400,156.430 98.256,156.268 97.833 C 156.009 97.158,156.796 96.800,158.536 96.800 C 159.374 96.800,159.978 96.527,160.307 96.000 C 160.685 95.394,161.240 95.200,162.589 95.200 C 163.962 95.200,164.470 95.016,164.800 94.400 C 165.139 93.767,165.638 93.600,167.191 93.600 C 168.681 93.600,169.286 93.413,169.698 92.824 C 170.128 92.210,170.783 92.030,172.821 91.963 C 175.847 91.864,176.400 91.709,176.400 90.957 C 176.400 90.544,177.045 90.392,178.900 90.369 C 182.726 90.322,184.938 89.998,185.617 89.384 C 186.054 88.989,187.622 88.794,191.017 88.713 C 195.350 88.611,198.521 88.617,212.071 88.756 M207.887 207.463 C 208.595 207.758,209.698 208.000,210.338 208.000 C 210.978 208.000,211.717 208.258,211.979 208.574 C 212.241 208.890,212.995 209.267,213.655 209.412 C 214.314 209.557,214.951 209.928,215.070 210.238 C 215.188 210.547,215.470 210.800,215.694 210.800 C 216.321 210.800,219.309 213.608,220.141 214.979 C 220.548 215.651,221.277 216.650,221.761 217.200 C 225.797 221.786,226.535 230.690,223.503 238.200 C 222.031 241.845,221.818 242.172,219.263 244.705 C 215.428 248.507,213.790 252.264,215.389 253.591 C 215.714 253.860,216.092 254.686,216.231 255.426 C 216.370 256.166,216.735 256.980,217.042 257.235 C 217.349 257.490,217.600 258.119,217.600 258.633 C 217.600 259.148,217.933 259.891,218.340 260.284 C 219.083 261.003,219.898 263.396,220.286 266.000 C 220.519 267.563,221.108 268.504,221.645 268.172 C 221.840 268.051,222.000 268.593,222.000 269.376 C 222.000 270.877,221.691 271.125,220.851 270.300 C 220.572 270.025,220.401 269.980,220.471 270.200 C 220.542 270.420,220.480 270.600,220.332 270.600 C 220.185 270.600,219.636 271.003,219.112 271.495 C 216.603 273.851,190.158 273.931,188.391 271.587 C 187.929 270.975,187.392 270.789,186.299 270.863 C 185.490 270.917,184.687 270.818,184.514 270.643 C 184.341 270.467,184.560 270.386,185.000 270.462 C 185.500 270.548,185.808 270.375,185.822 270.000 C 185.893 268.052,186.465 266.450,187.015 266.661 C 187.337 266.785,187.600 266.686,187.600 266.443 C 187.600 266.199,187.438 266.000,187.239 266.000 C 186.033 266.000,188.173 257.882,189.613 256.992 C 189.826 256.860,190.001 256.448,190.002 256.076 C 190.004 255.704,190.246 254.938,190.541 254.373 C 192.031 251.518,191.051 248.173,187.839 245.150 C 186.857 244.227,185.949 243.050,185.820 242.536 C 185.690 242.021,185.363 241.593,185.092 241.584 C 184.461 241.563,182.800 238.036,182.800 236.716 C 182.800 236.161,182.411 235.213,181.935 234.609 C 180.611 232.925,180.350 225.441,181.566 224.039 C 182.040 223.492,182.400 222.521,182.400 221.788 C 182.400 221.078,182.670 220.274,183.000 220.000 C 183.330 219.726,183.600 219.298,183.600 219.048 C 183.600 217.315,187.422 212.414,189.879 210.995 C 190.495 210.639,191.810 209.884,192.800 209.318 C 197.104 206.854,204.309 205.969,207.887 207.463 " stroke="none" fill="#fbfbfb" fill-rule="evenodd"></path><path id="path2" d="M200.500 88.676 C 200.885 88.776,201.515 88.776,201.900 88.676 C 202.285 88.575,201.970 88.493,201.200 88.493 C 200.430 88.493,200.115 88.575,200.500 88.676 M199.000 208.198 C 193.099 209.073,186.896 213.334,185.022 217.800 C 184.652 218.680,183.981 220.156,183.530 221.080 C 182.305 223.589,182.333 233.742,183.570 235.839 C 184.026 236.613,184.400 237.684,184.400 238.219 C 184.400 238.760,184.756 239.415,185.200 239.693 C 185.640 239.968,186.000 240.509,186.000 240.896 C 186.000 241.283,186.276 241.600,186.613 241.600 C 186.949 241.600,187.336 241.915,187.472 242.300 C 187.608 242.685,188.077 243.398,188.515 243.885 C 189.348 244.811,189.623 245.241,191.100 247.930 C 192.420 250.332,191.795 256.019,189.969 258.235 C 188.746 259.718,187.249 266.620,188.232 266.243 C 188.533 266.128,188.637 266.336,188.515 266.804 C 188.330 267.512,189.622 269.579,191.350 271.337 C 193.046 273.063,210.725 273.273,214.200 271.608 C 215.080 271.187,216.114 270.749,216.498 270.634 C 217.090 270.458,217.126 270.274,216.733 269.413 C 216.181 268.201,215.373 268.094,215.085 269.195 C 214.971 269.633,214.365 270.173,213.739 270.395 C 213.112 270.618,212.240 271.025,211.800 271.300 C 211.250 271.644,208.507 271.841,203.034 271.931 C 194.029 272.079,192.493 271.755,191.564 269.514 C 191.293 268.859,190.712 267.920,190.272 267.426 C 189.182 266.202,189.276 261.002,190.428 258.853 C 190.852 258.060,191.200 257.205,191.200 256.952 C 191.200 256.699,191.469 255.976,191.798 255.346 C 193.274 252.516,191.109 243.331,188.762 242.467 C 188.563 242.393,188.400 242.074,188.400 241.758 C 188.400 241.442,187.950 240.978,187.400 240.727 C 186.754 240.433,186.400 239.945,186.400 239.350 C 186.400 238.838,186.045 238.238,185.600 238.000 C 185.007 237.682,184.800 237.162,184.800 235.986 C 184.800 235.114,184.665 234.399,184.500 234.397 C 183.184 234.383,182.626 225.309,183.802 223.054 C 184.131 222.424,184.400 221.559,184.400 221.132 C 184.400 218.752,189.168 212.572,191.600 211.800 C 192.040 211.660,192.400 211.308,192.400 211.018 C 192.400 210.723,193.064 210.366,193.900 210.211 C 194.725 210.058,195.734 209.633,196.141 209.267 C 197.419 208.119,208.116 208.299,210.047 209.500 C 210.843 209.995,211.923 210.402,212.447 210.405 C 213.255 210.409,214.428 211.259,217.400 213.994 C 218.425 214.936,218.789 215.635,218.699 216.482 C 218.619 217.226,218.770 217.376,219.500 217.275 C 220.153 217.184,220.400 217.352,220.400 217.886 C 220.400 218.291,220.712 219.067,221.094 219.611 C 221.758 220.557,222.738 222.993,223.665 226.000 C 224.311 228.094,223.851 233.134,222.843 235.015 C 222.379 235.880,222.000 236.974,222.000 237.445 C 222.000 237.916,221.730 238.526,221.400 238.800 C 221.070 239.074,220.800 239.531,220.800 239.815 C 220.800 240.100,219.990 241.202,219.000 242.265 C 218.010 243.329,217.200 244.334,217.200 244.499 C 217.200 244.665,216.930 244.800,216.600 244.800 C 216.270 244.800,216.000 244.954,216.000 245.142 C 216.000 245.329,215.580 245.937,215.066 246.491 C 213.354 248.339,212.958 250.830,213.920 253.712 C 215.423 258.213,216.001 259.791,216.403 260.495 C 216.621 260.877,216.800 261.876,216.800 262.715 C 216.800 264.273,217.352 265.200,218.280 265.200 C 219.147 265.200,218.916 262.890,218.000 262.400 C 217.445 262.103,217.200 261.562,217.200 260.635 C 217.200 259.900,216.942 259.083,216.626 258.821 C 216.310 258.559,215.939 257.835,215.803 257.211 C 215.666 256.588,215.204 255.392,214.777 254.554 C 213.231 251.522,214.431 246.831,217.191 245.115 C 218.271 244.443,222.000 239.847,222.000 239.187 C 222.000 238.907,222.494 237.670,223.097 236.439 C 224.625 233.322,224.738 225.692,223.300 222.774 C 222.805 221.769,222.399 220.779,222.397 220.574 C 222.382 218.389,214.931 210.264,212.530 209.813 C 211.799 209.676,211.200 209.412,211.200 209.227 C 211.200 208.864,207.433 208.140,204.200 207.883 C 203.100 207.795,200.760 207.937,199.000 208.198 M118.900 343.887 C 119.505 343.978,120.495 343.978,121.100 343.887 C 121.705 343.795,121.210 343.720,120.000 343.720 C 118.790 343.720,118.295 343.795,118.900 343.887 " stroke="none" fill="#5c7cbc" fill-rule="evenodd"></path><path id="path3" d="M200.100 207.876 C 200.485 207.976,201.115 207.976,201.500 207.876 C 201.885 207.775,201.570 207.693,200.800 207.693 C 200.030 207.693,199.715 207.775,200.100 207.876 M204.100 207.887 C 204.705 207.978,205.695 207.978,206.300 207.887 C 206.905 207.795,206.410 207.720,205.200 207.720 C 203.990 207.720,203.495 207.795,204.100 207.887 M196.900 208.276 C 197.285 208.376,197.915 208.376,198.300 208.276 C 198.685 208.175,198.370 208.093,197.600 208.093 C 196.830 208.093,196.515 208.175,196.900 208.276 M193.800 209.227 C 192.253 210.218,192.976 210.199,194.800 209.200 C 195.570 208.778,195.930 208.439,195.600 208.446 C 195.270 208.453,194.460 208.804,193.800 209.227 M190.800 211.021 C 188.517 212.621,185.274 216.012,184.843 217.249 C 184.296 218.817,184.659 218.708,185.339 217.100 C 185.862 215.862,188.866 212.807,191.414 210.922 C 193.034 209.723,192.537 209.803,190.800 211.021 M217.928 213.658 C 218.438 214.237,219.672 215.946,220.670 217.456 C 221.668 218.965,222.379 219.881,222.251 219.492 C 221.884 218.371,218.992 214.280,217.949 213.403 L 217.000 212.606 217.928 213.658 M183.440 220.440 C 183.045 221.108,182.816 221.750,182.932 221.865 C 183.047 221.980,183.438 221.501,183.800 220.800 C 184.656 219.144,184.373 218.861,183.440 220.440 M222.403 220.615 C 222.401 220.844,222.760 221.737,223.200 222.600 C 223.725 223.631,223.999 223.900,223.997 223.385 C 223.996 222.953,223.637 222.060,223.200 221.400 C 222.763 220.740,222.404 220.387,222.403 220.615 M182.185 226.982 C 182.035 228.183,182.082 229.848,182.290 230.682 C 182.609 231.965,182.668 231.627,182.668 228.500 C 182.669 224.244,182.567 223.924,182.185 226.982 M224.534 229.200 C 224.534 230.850,224.605 231.525,224.691 230.700 C 224.778 229.875,224.778 228.525,224.691 227.700 C 224.605 226.875,224.534 227.550,224.534 229.200 M182.936 235.333 C 183.081 235.736,183.200 236.211,183.200 236.390 C 183.200 236.568,183.471 236.818,183.801 236.945 C 184.301 237.137,184.288 236.992,183.722 236.088 C 182.818 234.641,182.618 234.450,182.936 235.333 M222.832 236.739 C 222.179 237.960,222.314 238.300,223.041 237.263 C 223.393 236.760,223.588 236.254,223.473 236.140 C 223.359 236.025,223.070 236.295,222.832 236.739 M218.052 244.213 C 216.651 245.636,215.694 246.800,215.925 246.800 C 216.357 246.800,219.949 243.179,220.520 242.167 C 221.046 241.234,220.719 241.505,218.052 244.213 M187.837 243.751 C 187.991 244.154,188.755 245.140,189.533 245.942 C 190.311 246.744,190.645 247.026,190.274 246.569 C 189.903 246.111,189.600 245.558,189.600 245.338 C 189.600 245.119,189.140 244.507,188.578 243.979 C 187.766 243.217,187.614 243.170,187.837 243.751 M214.610 248.380 C 214.275 249.029,214.015 249.884,214.034 250.280 C 214.057 250.759,214.173 250.657,214.379 249.977 C 214.550 249.414,214.901 248.559,215.159 248.077 C 215.417 247.594,215.536 247.200,215.424 247.200 C 215.312 247.200,214.946 247.731,214.610 248.380 M190.820 247.600 C 190.816 247.710,191.071 248.520,191.388 249.400 C 191.705 250.280,191.966 250.640,191.968 250.200 C 191.971 249.535,190.845 246.985,190.820 247.600 M191.291 253.700 C 190.610 255.584,190.704 256.094,191.426 254.430 C 191.753 253.677,191.966 252.899,191.901 252.702 C 191.835 252.505,191.560 252.954,191.291 253.700 M214.400 253.847 C 214.400 254.067,214.664 254.596,214.987 255.024 C 215.310 255.451,215.575 255.620,215.575 255.400 C 215.575 255.180,215.310 254.651,214.987 254.224 C 214.664 253.796,214.400 253.627,214.400 253.847 M189.879 257.574 C 188.904 259.225,189.053 259.651,190.057 258.083 C 190.520 257.359,190.823 256.690,190.729 256.596 C 190.635 256.502,190.252 256.942,189.879 257.574 M188.504 260.501 C 187.887 261.788,187.592 262.800,187.833 262.800 C 188.113 262.800,189.289 259.955,189.091 259.757 C 189.005 259.671,188.741 260.006,188.504 260.501 M217.232 261.286 C 217.214 261.663,217.605 262.168,218.100 262.408 C 218.863 262.778,218.904 262.765,218.365 262.322 C 218.016 262.035,217.625 261.530,217.496 261.200 C 217.307 260.714,217.257 260.730,217.232 261.286 M189.812 270.400 C 189.974 270.950,190.263 271.460,190.455 271.534 C 190.648 271.608,190.703 271.833,190.579 272.034 C 190.455 272.235,190.948 272.386,191.676 272.368 C 192.404 272.351,192.741 272.235,192.424 272.110 C 192.107 271.985,191.324 271.324,190.683 270.641 C 189.563 269.446,189.530 269.437,189.812 270.400 M214.200 271.516 L 213.000 272.200 214.276 272.324 C 215.152 272.408,215.812 272.188,216.376 271.624 L 217.200 270.800 216.300 270.816 C 215.805 270.825,214.860 271.140,214.200 271.516 M194.105 272.687 C 194.714 272.779,195.614 272.777,196.105 272.682 C 196.597 272.587,196.100 272.511,195.000 272.514 C 193.900 272.517,193.497 272.595,194.105 272.687 M207.900 272.689 C 208.615 272.778,209.785 272.778,210.500 272.689 C 211.215 272.601,210.630 272.528,209.200 272.528 C 207.770 272.528,207.185 272.601,207.900 272.689 " stroke="none" fill="#8c9cd4" fill-rule="evenodd"></path><path id="path4" d="M343.709 197.600 C 343.709 198.590,343.787 198.995,343.882 198.500 C 343.978 198.005,343.978 197.195,343.882 196.700 C 343.787 196.205,343.709 196.610,343.709 197.600 M198.200 207.372 C 196.220 207.875,193.790 208.751,192.800 209.318 C 191.810 209.884,190.495 210.639,189.879 210.995 C 187.422 212.414,183.600 217.315,183.600 219.048 C 183.600 219.298,183.330 219.726,183.000 220.000 C 182.670 220.274,182.400 221.078,182.400 221.788 C 182.400 222.521,182.040 223.492,181.566 224.039 C 180.350 225.441,180.611 232.925,181.935 234.609 C 182.411 235.213,182.800 236.161,182.800 236.716 C 182.800 238.036,184.461 241.563,185.092 241.584 C 185.363 241.593,185.690 242.021,185.820 242.536 C 185.949 243.050,186.857 244.227,187.839 245.150 C 191.051 248.173,192.031 251.518,190.541 254.373 C 190.246 254.938,190.004 255.704,190.002 256.076 C 190.001 256.448,189.826 256.860,189.613 256.992 C 188.078 257.941,186.043 266.000,187.339 266.000 C 187.627 266.000,187.811 265.186,187.828 263.833 C 187.850 262.209,188.212 260.933,189.276 258.733 C 192.506 252.058,192.525 249.295,189.367 245.848 C 188.615 245.027,188.000 244.199,188.000 244.008 C 188.000 243.818,187.581 243.153,187.068 242.531 C 186.556 241.909,186.021 241.085,185.881 240.700 C 185.740 240.315,185.349 240.000,185.013 240.000 C 184.581 240.000,184.400 239.593,184.400 238.620 C 184.400 237.781,184.153 237.102,183.771 236.888 C 181.949 235.868,181.821 223.253,183.603 220.200 C 183.988 219.540,184.510 218.352,184.763 217.559 C 187.290 209.645,203.625 204.759,212.200 209.352 C 212.860 209.706,213.581 209.996,213.803 209.998 C 215.358 210.007,220.866 216.547,222.901 220.800 C 225.287 225.785,225.334 233.989,222.996 237.328 C 222.668 237.795,222.397 238.453,222.393 238.789 C 222.378 240.013,216.991 246.800,216.033 246.800 C 214.645 246.800,213.815 252.447,214.949 254.178 C 215.307 254.724,215.600 255.406,215.600 255.692 C 215.600 255.978,215.934 256.839,216.341 257.606 C 216.749 258.373,217.204 259.658,217.352 260.461 C 217.500 261.265,217.887 262.024,218.211 262.149 C 218.608 262.301,218.800 262.956,218.800 264.155 C 218.800 266.348,219.104 267.200,219.887 267.200 C 220.910 267.200,219.646 261.548,218.340 260.284 C 217.933 259.891,217.600 259.148,217.600 258.633 C 217.600 258.119,217.349 257.490,217.042 257.235 C 216.735 256.980,216.370 256.166,216.231 255.426 C 216.092 254.686,215.714 253.860,215.389 253.591 C 213.790 252.264,215.428 248.507,219.263 244.705 C 221.818 242.172,222.031 241.845,223.503 238.200 C 226.535 230.690,225.797 221.786,221.761 217.200 C 221.277 216.650,220.548 215.651,220.141 214.979 C 219.309 213.608,216.321 210.800,215.694 210.800 C 215.470 210.800,215.188 210.547,215.070 210.238 C 214.951 209.928,214.314 209.557,213.655 209.412 C 212.995 209.267,212.241 208.890,211.979 208.574 C 211.717 208.258,210.978 208.000,210.338 208.000 C 209.698 208.000,208.595 207.758,207.887 207.463 C 205.383 206.417,202.075 206.386,198.200 207.372 M220.400 268.671 C 220.400 269.792,221.006 270.800,221.680 270.800 C 221.856 270.800,222.000 270.140,222.000 269.333 C 222.000 268.527,221.882 267.985,221.737 268.130 C 221.592 268.275,221.232 268.193,220.937 267.948 C 220.509 267.592,220.400 267.738,220.400 268.671 M189.241 269.500 C 189.218 269.775,188.940 270.000,188.623 270.000 C 188.015 270.000,188.082 271.442,188.720 272.080 C 190.552 273.912,217.083 273.495,218.974 271.604 C 219.751 270.827,219.745 270.822,218.223 270.942 C 217.313 271.014,216.474 271.358,216.158 271.789 C 215.243 273.041,189.848 273.216,190.621 271.966 C 190.746 271.765,190.683 271.600,190.481 271.600 C 190.280 271.600,189.928 271.015,189.699 270.300 C 189.469 269.585,189.263 269.225,189.241 269.500 M196.800 341.600 C 196.800 341.820,197.171 342.000,197.624 342.000 C 198.077 342.000,198.336 341.820,198.200 341.600 C 198.064 341.380,197.693 341.200,197.376 341.200 C 197.059 341.200,196.800 341.380,196.800 341.600 M205.000 341.600 C 204.853 341.838,205.329 342.000,206.176 342.000 C 206.959 342.000,207.600 341.820,207.600 341.600 C 207.600 341.380,207.071 341.200,206.424 341.200 C 205.777 341.200,205.136 341.380,205.000 341.600 " stroke="none" fill="#9ca4cc" fill-rule="evenodd"></path></g></svg>